# File created by Blade
# Date/Time:  Thu Jan 22 19:09:08 2015
#---------------------------------------------------------
:version 1.10
:name HOM
:units
  mass 1.0
  length 1.000000
  angle deg
:documentation
     Acclaim Skeleton File
:root
   axis xyz
   order TX TY TZ RX RY RZ
   position 0.000000 0.000000 0.000000
   orientation 0 0 0
:bonedata
   begin
      id 1
      name RightUpLeg_dum
      direction -1.000000 0.000000 0.000000
      length 4.478084
      axis 0.0 0.0 0.0 xyz
   end
   begin
      id 2
      name LeftUpLeg_dum
      direction 1.000000 0.000000 0.000000
      length 4.478084
      axis 0.0 0.0 0.0 xyz
   end
   begin
      id 3
      name Spine_dum
      direction 0.000000 1.000000 0.000000
      length 6.068208
      axis 0.0 0.0 0.0 xyz
   end
   begin
      id 4
      name RightUpLeg
      direction 0.000000 -1.000000 0.000000
      length 16.405774
      axis 0.0 0.0 0.0 xyz
      dof rx ry rz
   end
   begin
      id 5
      name RightLeg
      direction 0.000000 -1.000000 0.000000
      length 14.644143
      axis 0.0 0.0 0.0 xyz
      dof rx ry rz
   end
   begin
      id 6
      name RightFoot
      direction 0.000000 -0.258819 0.965926
      length 5.806150
      axis 15.0 0.0 0.0 xyz
      dof rx ry rz
   end
   begin
      id 7
      name RightToeBase
      direction 0.000000 0.000000 1.000000
      length 2.952750
      axis 0.0 0.0 0.0 xyz
      dof rx ry rz
   end
   begin
      id 8
      name LeftUpLeg
      direction 0.000000 -1.000000 0.000000
      length 16.405774
      axis 0.0 0.0 0.0 xyz
      dof rx ry rz
   end
   begin
      id 9
      name LeftLeg
      direction 0.000000 -1.000000 0.000000
      length 14.644143
      axis 0.0 0.0 0.0 xyz
      dof rx ry rz
   end
   begin
      id 10
      name LeftFoot
      direction 0.000000 -0.258819 0.965926
      length 5.806150
      axis 15.0 0.0 0.0 xyz
      dof rx ry rz
   end
   begin
      id 11
      name LeftToeBase
      direction 0.000000 0.000000 1.000000
      length 2.952750
      axis 0.0 0.0 0.0 xyz
      dof rx ry rz
   end
   begin
      id 12
      name Spine
      direction 0.000000 1.000000 0.000000
      length 0.000000
      axis 0.0 0.0 0.0 xyz
      dof rx ry rz
   end
   begin
      id 13
      name Spine_dum1
      direction 0.000000 1.000000 0.000000
      length 10.013923
      axis 0.0 0.0 0.0 xyz
   end
   begin
      id 14
      name Spine_dum2
      direction 0.000000 1.000000 0.000000
      length 10.013923
      axis 0.0 0.0 0.0 xyz
   end
   begin
      id 15
      name Spine_dum3
      direction 0.000000 1.000000 0.000000
      length 15.777476
      axis 0.0 0.0 0.0 xyz
   end
   begin
      id 16
      name RightShoulder
      direction -1.000000 0.000000 0.000000
      length 7.190220
      axis 0.0 0.0 90.0 xyz
      dof rx ry rz
   end
   begin
      id 17
      name RightArm
      direction -1.000000 0.000000 0.000000
      length 10.177469
      axis 0.0 0.0 90.0 xyz
      dof rx ry rz
   end
   begin
      id 18
      name RightForeArm
      direction -1.000000 0.000000 0.000000
      length 8.392114
      axis 0.0 0.0 90.0 xyz
      dof ry rz rx
   end
   begin
      id 19
      name RightHand
      direction -1.000000 0.000000 0.000000
      length 0.000000
      axis 0.0 0.0 90.0 xyz
      dof rx ry rz
   end
   begin
      id 20
      name RightHand_dum1
      direction -1.000000 0.000000 0.000000
      length 3.937000
      axis 0.0 0.0 90.0 xyz
   end
   begin
      id 21
      name RightHand_dum2
      direction 0.000000 0.000000 0.000000
      length 0.000000
      axis 0.0 0.0 90.0 xyz
   end
   begin
      id 22
      name RightHandThumb1
      direction 0.000000 0.000000 1.000000
      length 3.937000
      axis 0.0 0.0 90.0 xyz
      dof rx rz ry
   end
   begin
      id 23
      name LeftShoulder
      direction 1.000000 0.000000 0.000000
      length 7.190220
      axis 0.0 0.0 -90.0 xyz
      dof rx ry rz
   end
   begin
      id 24
      name LeftArm
      direction 1.000000 0.000000 0.000000
      length 10.177469
      axis 0.0 0.0 -90.0 xyz
      dof rx ry rz
   end
   begin
      id 25
      name LeftForeArm
      direction 1.000000 0.000000 0.000000
      length 8.392114
      axis 0.0 0.0 -90.0 xyz
      dof ry rz rx
   end
   begin
      id 26
      name LeftHand
      direction 1.000000 0.000000 0.000000
      length 0.000000
      axis 0.0 0.0 -90.0 xyz
      dof rx ry rz
   end
   begin
      id 27
      name LeftHand_dum1
      direction 1.000000 0.000000 0.000000
      length 3.937000
      axis 0.0 0.0 -90.0 xyz
   end
   begin
      id 28
      name LeftHand_dum2
      direction 0.000000 0.000000 0.000000
      length 0.000000
      axis 0.0 0.0 -90.0 xyz
   end
   begin
      id 29
      name LeftHandThumb1
      direction 0.000000 0.000000 1.000000
      length 3.937000
      axis 0.0 0.0 -90.0 xyz
      dof rx rz ry
   end
   begin
      id 30
      name Head
      direction 0.000000 1.000000 0.000000
      length 4.527550
      axis 0.0 0.0 0.0 xyz
      dof rx ry rz
   end
:hierarchy
   begin
      root RightUpLeg_dum LeftUpLeg_dum Spine_dum
      RightUpLeg_dum RightUpLeg
      LeftUpLeg_dum LeftUpLeg
      Spine_dum Spine
      RightUpLeg RightLeg
      RightLeg RightFoot
      RightFoot RightToeBase
      LeftUpLeg LeftLeg
      LeftLeg LeftFoot
      LeftFoot LeftToeBase
      Spine Spine_dum1 Spine_dum2 Spine_dum3
      Spine_dum1 RightShoulder
      Spine_dum2 LeftShoulder
      Spine_dum3 Head
      RightShoulder RightArm
      RightArm RightForeArm
      RightForeArm RightHand
      RightHand RightHand_dum1 RightHand_dum2
      RightHand_dum2 RightHandThumb1
      LeftShoulder LeftArm
      LeftArm LeftForeArm
      LeftForeArm LeftHand
      LeftHand LeftHand_dum1 LeftHand_dum2
      LeftHand_dum2 LeftHandThumb1
   end

# File created by Blade
# Date/Time:  Thu Jan 22 19:08:58 2015
# Frame Rate: 120.000 fps
#------------------------------------------------------
:FULLY-SPECIFIED
:DEGREES
687
root -2.223740 32.789582 -0.785709 12.868393 -49.871398 -4.453687
RightUpLeg -17.164459 22.117972 -2.739434
RightLeg 9.956539 -0.000000 -0.000000
RightFoot -9.845833 7.618440 -1.226879
RightToeBase -0.710695 -0.000000 0.000000
LeftUpLeg 2.806352 20.505113 2.595168
LeftLeg 9.142463 -0.000000 -0.000000
LeftFoot -23.440729 17.689657 -15.765069
LeftToeBase 3.344490 -0.000000 -0.000000
Spine -11.794625 -26.845616 5.407238
RightShoulder -25.469896 -24.193593 -19.618415
RightArm 16.111850 24.707174 42.830998
RightForeArm -10.651571 -0.000000 14.164810
RightHand 11.792940 -0.000000 3.541691
RightHandThumb1 -24.326973 -0.000000 -32.862282
LeftShoulder -15.583292 -0.221008 32.290690
LeftArm 40.153740 -12.955896 -44.826600
LeftForeArm 15.782161 -0.000000 1.781404
LeftHand -6.735817 -0.000000 -3.985187
LeftHandThumb1 -26.253704 0.000000 33.147579
Head -1.258598 -10.404977 6.852752
688
root -2.234104 32.785288 -0.786842 13.035012 -50.469167 -4.608414
RightUpLeg -17.272195 22.262575 -2.730276
RightLeg 9.881351 -0.000000 -0.000000
RightFoot -9.631977 8.127009 -0.932214
RightToeBase 0.026658 -0.000000 -0.000000
LeftUpLeg 2.893719 20.673561 2.555753
LeftLeg 9.109823 -0.000000 -0.000000
LeftFoot -23.544418 17.984633 -15.926057
LeftToeBase 3.346081 -0.000000 -0.000000
Spine -11.843130 -27.191489 5.518304
RightShoulder -25.516301 -24.338711 -19.653580
RightArm 15.590412 24.937457 43.124941
RightForeArm -10.521921 -0.000000 14.356951
RightHand 11.862874 -0.000000 3.532155
RightHandThumb1 -24.326973 -0.000000 -32.862282
LeftShoulder -15.523255 -0.404346 32.334571
LeftArm 40.729063 -12.674174 -45.159228
LeftForeArm 15.926889 -0.000000 1.872093
LeftHand -6.740952 -0.000000 -4.182841
LeftHandThumb1 -26.253704 0.000000 33.147579
Head -1.234260 -10.979185 6.932150
689
root -2.246713 32.781658 -0.785924 13.221647 -51.079290 -4.797934
RightUpLeg -17.358879 22.489063 -2.736966
RightLeg 9.768687 -0.000000 -0.000000
RightFoot -9.384371 8.646858 -0.412769
RightToeBase 0.459169 -0.000000 -0.000000
LeftUpLeg 3.003272 20.912793 2.550193
LeftLeg 9.076442 -0.000000 -0.000000
LeftFoot -23.635056 18.198008 -16.058968
LeftToeBase 3.459709 -0.000000 -0.000000
Spine -11.879795 -27.543515 5.651690
RightShoulder -25.571597 -24.499489 -19.659900
RightArm 15.112748 25.118848 43.378142
RightForeArm -10.353878 -0.000000 14.565475
RightHand 11.661006 -0.000000 3.752733
RightHandThumb1 -24.326973 -0.000000 -32.862282
LeftShoulder -15.499925 -0.480279 32.344135
LeftArm 41.373676 -12.325913 -45.419080
LeftForeArm 15.747221 -0.000000 1.972154
LeftHand -6.325344 -0.000000 -4.548859
LeftHandThumb1 -26.253704 0.000000 33.147579
Head -1.227065 -11.548012 6.988366
690
root -2.261434 32.779703 -0.786368 13.426910 -51.682943 -5.019891
RightUpLeg -17.443436 22.709084 -2.718664
RightLeg 9.666374 -0.000000 -0.000000
RightFoot -9.112769 9.169489 0.214260
RightToeBase 0.579957 -0.000000 -0.000000
LeftUpLeg 3.104733 21.104455 2.557494
LeftLeg 9.065313 -0.000000 -0.000000
LeftFoot -23.752294 18.484144 -16.216433
LeftToeBase 3.557008 -0.000000 -0.000000
Spine -11.897051 -27.853162 5.774267
RightShoulder -25.657786 -24.670888 -19.658871
RightArm 14.629534 25.221745 43.628865
RightForeArm -10.045858 -0.000000 14.708539
RightHand 11.645402 -0.000000 3.115206
RightHandThumb1 -24.326973 -0.000000 -32.862282
LeftShoulder -15.380541 -0.718251 32.404032
LeftArm 41.852871 -11.981996 -45.729241
LeftForeArm 16.002847 -0.000000 2.120831
LeftHand -6.853396 -0.000000 -4.011254
LeftHandThumb1 -26.253704 0.000000 33.147579
Head -1.229315 -12.143901 7.102312
691
root -2.272696 32.776834 -0.788558 13.641147 -52.279939 -5.229187
RightUpLeg -17.553008 22.855488 -2.707330
RightLeg 9.581206 -0.000000 -0.000000
RightFoot -8.815335 9.718481 0.640419
RightToeBase 0.825832 -0.000000 -0.000000
LeftUpLeg 3.177484 21.344126 2.551537
LeftLeg 9.060670 -0.000000 -0.000000
LeftFoot -23.849493 18.750594 -16.296602
LeftToeBase 3.744245 -0.000000 -0.000000
Spine -11.912041 -28.157460 5.881955
RightShoulder -25.803977 -24.840956 -19.641206
RightArm 14.221909 25.364785 43.931075
RightForeArm -10.026458 -0.000000 14.813531
RightHand 11.859394 -0.000000 2.590950
RightHandThumb1 -24.326973 -0.000000 -32.862282
LeftShoulder -15.261894 -0.965115 32.503383
LeftArm 42.359262 -11.660525 -46.081722
LeftForeArm 16.180351 -0.000000 2.195232
LeftHand -6.808255 -0.000000 -3.996254
LeftHandThumb1 -26.253704 0.000000 33.147579
Head -1.252609 -12.765883 7.208228
692
root -2.285892 32.773955 -0.789665 13.849538 -52.857022 -5.443965
RightUpLeg -17.653665 22.907348 -2.652030
RightLeg 9.552399 -0.000000 -0.000000
RightFoot -8.571616 10.270454 0.936633
RightToeBase 1.436545 -0.000000 -0.000000
LeftUpLeg 3.251996 21.490995 2.544915
LeftLeg 9.082060 -0.000000 -0.000000
LeftFoot -23.991487 19.028927 -16.479052
LeftToeBase 3.834147 -0.000000 -0.000000
Spine -11.916125 -28.491890 5.988297
RightShoulder -25.875611 -24.941267 -19.698398
RightArm 13.642176 25.461842 44.210919
RightForeArm -9.960036 -0.000000 15.062928
RightHand 11.746706 0.000000 2.251621
RightHandThumb1 -24.326973 -0.000000 -32.862282
LeftShoulder -15.150873 -1.099194 32.552513
LeftArm 42.904113 -11.430286 -46.440682
LeftForeArm 16.311366 -0.000000 2.331910
LeftHand -6.687486 0.000000 -3.855852
LeftHandThumb1 -26.253704 0.000000 33.147579
Head -1.294420 -13.377422 7.315214
693
root -2.300469 32.771425 -0.794160 14.092995 -53.437455 -5.693125
RightUpLeg -17.720605 23.136238 -2.614447
RightLeg 9.405516 -0.000000 -0.000000
RightFoot -8.253512 10.608472 1.184686
RightToeBase 1.957194 -0.000000 -0.000000
LeftUpLeg 3.321916 21.735398 2.561209
LeftLeg 9.090861 -0.000000 -0.000000
LeftFoot -24.109814 19.286984 -16.611455
LeftToeBase 3.998312 -0.000000 -0.000000
Spine -11.906467 -28.821881 6.096241
RightShoulder -25.950074 -25.041391 -19.756937
RightArm 13.087990 25.502899 44.489822
RightForeArm -9.828332 -0.000000 15.254234
RightHand 11.539955 -0.000000 2.123552
RightHandThumb1 -24.326973 -0.000000 -32.862282
LeftShoulder -15.026833 -1.258181 32.617744
LeftArm 43.437820 -11.161091 -46.738381
LeftForeArm 16.648349 -0.000000 2.454342
LeftHand -7.014643 -0.000000 -3.716436
LeftHandThumb1 -26.253704 0.000000 33.147579
Head -1.359021 -13.987169 7.465048
